<?xml version="1.0" standalone="no"?>
<!DOCTYPE svg PUBLIC "-//W3C//DTD SVG 20010904//EN"
 "http://www.w3.org/TR/2001/REC-SVG-20010904/DTD/svg10.dtd">
<svg version="1.0" xmlns="http://www.w3.org/2000/svg"
 width="1000.000000pt" height="1000.000000pt" viewBox="0 0 1000.000000 1000.000000"
 preserveAspectRatio="xMidYMid meet">

<g transform="translate(0.000000,1000.000000) scale(0.100000,-0.100000)"
fill="#000000" stroke="none">
<path d="M5491 8580 c-66 -14 -169 -49 -226 -78 -213 -106 -412 -329 -504
-567 -55 -140 -71 -229 -81 -459 -17 -367 -73 -592 -225 -901 -171 -348 -450
-693 -769 -948 l-110 -87 -1146 0 c-1305 0 -1205 7 -1297 -85 -91 -92 -84 89
-81 -2005 3 -1758 4 -1847 21 -1878 28 -51 86 -111 131 -135 l41 -22 2920 -3
c2620 -2 2928 -1 3000 13 218 43 418 197 557 430 20 33 133 274 251 535 403
892 785 1735 842 1860 116 253 142 357 131 520 -24 367 -257 650 -618 747 -57
15 -157 17 -975 20 -902 4 -913 4 -913 24 0 22 129 1107 187 1569 47 374 49
516 9 665 -99 368 -384 665 -736 766 -85 24 -330 35 -409 19z m353 -578 c145
-68 246 -191 292 -357 19 -71 18 -135 -11 -367 -143 -1161 -245 -2039 -240
-2068 15 -81 83 -162 170 -202 l50 -23 1063 -1 1062 -2 54 -26 c75 -37 123
-92 132 -151 14 -94 1 -130 -175 -517 -93 -205 -212 -467 -264 -583 -576
-1276 -721 -1593 -746 -1629 -34 -50 -97 -108 -140 -131 -27 -14 -195 -15
-1598 -15 l-1568 -1 -3 1600 -2 1600 71 55 c421 327 794 793 1000 1248 146
324 220 643 238 1022 10 204 26 264 94 367 130 196 336 268 521 181z m-2456
-4529 l-3 -1528 -897 -3 c-715 -2 -898 0 -899 10 -1 10 0 3035 1 3046 0 1 405
2 900 2 l900 0 -2 -1527z"/>
</g>
</svg>
